<svg xmlns="http://www.w3.org/2000/svg" viewBox="0 0 521.078 100" role="img" aria-label="Naver">
  <title>Naver</title>
  <path fill="#03CF5D" d="M150 0 110.784 100h33.333l4.736-13.235h37.587L191.176 100h33.333L185.294 0H150zm6.469 62.745 11.178-31.238 11.178 31.238H156.469z"/>
  <path fill="#03CF5D" d="M363.235 62.01h45.588V37.99h-45.588V24.51h46.078V0h-77.941v100h78.922V75.49h-47.059V62.01z"/>
  <path fill="#03CF5D" d="m264.216 65.753-23.53-65.753H207.353l39.216 100h35.294L321.078 0h-33.333l-23.53 65.753z"/>
  <path fill="#03CF5D" d="M68.137 53.521 30.882 0H0v100h32.353V46.479l37.255 53.521H100.49V0H68.137v53.521z"/>
  <path fill="#03CF5D" d="M495.796 65.694l3.033-1.269c11.622-4.865 17.533-15.39 17.533-28.748 0-12.632-4.607-21.977-13.694-27.776C494.221 2.511 483.266 0 468.194 0h-42.214v100h31.372V72.059h11.275l26.471 27.941h33.333l-25.282-34.306zm-21.777-19.125h-17.157V25.49h17.157c5.821 0 10.539 4.719 10.539 10.539s-4.718 10.54-10.539 10.54z"/>
</svg>
